<svg width="32" height="32" viewBox="0 0 32 32" fill="none" xmlns="http://www.w3.org/2000/svg">
<g id="Iconly/Bold/Bag 2">
<g id="Bag 2">
<path id="Bag 2_2" fill-rule="evenodd" clip-rule="evenodd" d="M21.8911 8.62663H22.1642C25.7535 8.62663 28.6666 11.6266 28.6666 15.3066V22.6666C28.6666 26.3466 25.7535 29.3333 22.1642 29.3333H9.83565C6.24633 29.3333 3.33325 26.3466 3.33325 22.6666V15.3066C3.33325 11.6266 6.24633 8.62663 9.83565 8.62663H10.1087C10.1348 7.02663 10.746 5.53329 11.8514 4.41329C12.9698 3.27996 14.4003 2.70663 16.0129 2.66663C19.2381 2.66663 21.8521 5.33329 21.8911 8.62663ZM13.2168 5.83996C12.4886 6.58663 12.0854 7.57329 12.0594 8.62663H19.9403C19.9013 6.43996 18.1586 4.66663 16.0128 4.66663C15.0115 4.66663 13.9711 5.07996 13.2168 5.83996ZM20.9417 13.76C21.4879 13.76 21.917 13.3066 21.917 12.76V11.2133C21.917 10.6666 21.4879 10.2133 20.9417 10.2133C20.4085 10.2133 19.9663 10.6666 19.9663 11.2133V12.76C19.9663 13.3066 20.4085 13.76 20.9417 13.76ZM11.9163 12.76C11.9163 13.3066 11.4872 13.76 10.941 13.76C10.4078 13.76 9.96563 13.3066 9.96563 12.76V11.2133C9.96563 10.6666 10.4078 10.2133 10.941 10.2133C11.4872 10.2133 11.9163 10.6666 11.9163 11.2133V12.76Z" fill="#2C2D5B"/>
</g>
</g>
</svg>
