<svg width="16" height="16" viewBox="0 0 16 16" fill="none" xmlns="http://www.w3.org/2000/svg">
<g id="Iconly/Bold/Bag 2">
<g id="Bag 2">
<path id="Bag 2_2" fill-rule="evenodd" clip-rule="evenodd" d="M10.9457 4.31331H11.0822C12.8769 4.31331 14.3334 5.81331 14.3334 7.65331V11.3333C14.3334 13.1733 12.8769 14.6666 11.0822 14.6666H4.91795C3.12328 14.6666 1.66675 13.1733 1.66675 11.3333V7.65331C1.66675 5.81331 3.12328 4.31331 4.91795 4.31331H5.0545C5.0675 3.51331 5.37311 2.76665 5.92582 2.20665C6.48502 1.63998 7.20029 1.35331 8.00658 1.33331C9.61918 1.33331 10.9262 2.66665 10.9457 4.31331ZM6.60864 2.91998C6.24451 3.29331 6.04294 3.78665 6.02993 4.31331H9.97038C9.95088 3.21998 9.07956 2.33331 8.00666 2.33331C7.50598 2.33331 6.98578 2.53998 6.60864 2.91998ZM10.4711 6.87998C10.7442 6.87998 10.9587 6.65331 10.9587 6.37998V5.60665C10.9587 5.33331 10.7442 5.10664 10.4711 5.10664C10.2045 5.10664 9.98339 5.33331 9.98339 5.60665V6.37998C9.98339 6.65331 10.2045 6.87998 10.4711 6.87998ZM5.9584 6.37998C5.9584 6.65331 5.74382 6.87998 5.47072 6.87998C5.20412 6.87998 4.98304 6.65331 4.98304 6.37998V5.60664C4.98304 5.33331 5.20412 5.10664 5.47072 5.10664C5.74382 5.10664 5.9584 5.33331 5.9584 5.60664V6.37998Z" fill="#9593A0"/>
</g>
</g>
</svg>
