<svg width="31" height="30" viewBox="0 0 31 30" fill="none" xmlns="http://www.w3.org/2000/svg">
<g id="Exodus Landing Page">
<g id="Exodus Landing Page_2">
<path id="Vector" d="M15.4977 11.9987C13.8451 11.9987 12.4965 13.3474 12.4965 15C12.4965 16.6526 13.8451 18.0013 15.4977 18.0013C17.1504 18.0013 18.499 16.6526 18.499 15C18.499 13.3474 17.1504 11.9987 15.4977 11.9987ZM24.4993 15C24.4993 13.7572 24.5106 12.5256 24.4408 11.285C24.371 9.84402 24.0423 8.56515 22.9886 7.51144C21.9326 6.45548 20.656 6.12901 19.215 6.05921C17.9722 5.98941 16.7406 6.00067 15.5 6.00067C14.2572 6.00067 13.0256 5.98941 11.785 6.05921C10.344 6.12901 9.06515 6.45773 8.01144 7.51144C6.95548 8.5674 6.62901 9.84402 6.55921 11.285C6.48941 12.5278 6.50067 13.7594 6.50067 15C6.50067 16.2406 6.48941 17.4744 6.55921 18.715C6.62901 20.156 6.95773 21.4348 8.01144 22.4886C9.0674 23.5445 10.344 23.871 11.785 23.9408C13.0278 24.0106 14.2594 23.9993 15.5 23.9993C16.7428 23.9993 17.9744 24.0106 19.215 23.9408C20.656 23.871 21.9349 23.5423 22.9886 22.4886C24.0445 21.4326 24.371 20.156 24.4408 18.715C24.5128 17.4744 24.4993 16.2428 24.4993 15ZM15.4977 19.6179C12.9423 19.6179 10.8799 17.5555 10.8799 15C10.8799 12.4445 12.9423 10.3821 15.4977 10.3821C18.0532 10.3821 20.1156 12.4445 20.1156 15C20.1156 17.5555 18.0532 19.6179 15.4977 19.6179ZM20.3047 11.2715C19.7081 11.2715 19.2263 10.7897 19.2263 10.193C19.2263 9.59635 19.7081 9.11452 20.3047 9.11452C20.9014 9.11452 21.3832 9.59635 21.3832 10.193C21.3834 10.3347 21.3556 10.475 21.3015 10.6059C21.2474 10.7369 21.1679 10.8558 21.0677 10.956C20.9676 11.0562 20.8486 11.1356 20.7177 11.1897C20.5867 11.2439 20.4464 11.2717 20.3047 11.2715Z" fill="black"/>
<mask id="mask0_4_13257" style="mask-type:luminance" maskUnits="userSpaceOnUse" x="6" y="6" width="19" height="18">
<path id="Exodus Landing Page_3" d="M15.4977 11.9987C13.8451 11.9987 12.4965 13.3474 12.4965 15C12.4965 16.6526 13.8451 18.0013 15.4977 18.0013C17.1504 18.0013 18.499 16.6526 18.499 15C18.499 13.3474 17.1504 11.9987 15.4977 11.9987ZM24.4993 15C24.4993 13.7572 24.5106 12.5256 24.4408 11.285C24.371 9.84402 24.0423 8.56515 22.9886 7.51144C21.9326 6.45548 20.656 6.12901 19.215 6.05921C17.9722 5.98941 16.7406 6.00067 15.5 6.00067C14.2572 6.00067 13.0256 5.98941 11.785 6.05921C10.344 6.12901 9.06515 6.45773 8.01144 7.51144C6.95548 8.5674 6.62901 9.84402 6.55921 11.285C6.48941 12.5278 6.50067 13.7594 6.50067 15C6.50067 16.2406 6.48941 17.4744 6.55921 18.715C6.62901 20.156 6.95773 21.4348 8.01144 22.4886C9.0674 23.5445 10.344 23.871 11.785 23.9408C13.0278 24.0106 14.2594 23.9993 15.5 23.9993C16.7428 23.9993 17.9744 24.0106 19.215 23.9408C20.656 23.871 21.9349 23.5423 22.9886 22.4886C24.0445 21.4326 24.371 20.156 24.4408 18.715C24.5128 17.4744 24.4993 16.2428 24.4993 15ZM15.4977 19.6179C12.9423 19.6179 10.8799 17.5555 10.8799 15C10.8799 12.4445 12.9423 10.3821 15.4977 10.3821C18.0532 10.3821 20.1156 12.4445 20.1156 15C20.1156 17.5555 18.0532 19.6179 15.4977 19.6179ZM20.3047 11.2715C19.7081 11.2715 19.2263 10.7897 19.2263 10.193C19.2263 9.59635 19.7081 9.11452 20.3047 9.11452C20.9014 9.11452 21.3832 9.59635 21.3832 10.193C21.3834 10.3347 21.3556 10.475 21.3015 10.6059C21.2474 10.7369 21.1679 10.8558 21.0677 10.956C20.9676 11.0562 20.8486 11.1356 20.7177 11.1897C20.5867 11.2439 20.4464 11.2717 20.3047 11.2715Z" fill="white"/>
</mask>
<g mask="url(#mask0_4_13257)">
<rect id="Exodus Landing Page_4" x="-1.47534" y="-2.97363" width="30" height="30" fill="url(#paint0_linear_4_13257)"/>
</g>
</g>
</g>
<defs>
<linearGradient id="paint0_linear_4_13257" x1="-1.47534" y1="12.0264" x2="28.5247" y2="12.0264" gradientUnits="userSpaceOnUse">
<stop stop-color="#2C2D5B"/>
<stop offset="1" stop-color="#9FA1FF"/>
</linearGradient>
</defs>
</svg>
