<svg width="16" height="16" viewBox="0 0 16 16" fill="none" xmlns="http://www.w3.org/2000/svg">
<g id="Iconly/Bold/Location">
<g id="Location">
<path id="Location_2" fill-rule="evenodd" clip-rule="evenodd" d="M2.33325 6.87848C2.33325 3.81191 4.89584 1.33331 7.99555 1.33331C11.104 1.33331 13.6666 3.81191 13.6666 6.87848C13.6666 8.42377 13.1046 9.8584 12.1796 11.0744C11.1591 12.4157 9.90136 13.5843 8.48561 14.5016C8.16159 14.7136 7.86917 14.7296 7.51355 14.5016C6.08974 13.5843 4.83198 12.4157 3.82025 11.0744C2.89457 9.8584 2.33325 8.42377 2.33325 6.87848ZM6.12937 7.05115C6.12937 8.07845 6.96766 8.88643 7.99551 8.88643C9.02404 8.88643 9.8704 8.07845 9.8704 7.05115C9.8704 6.03185 9.02404 5.18454 7.99551 5.18454C6.96766 5.18454 6.12937 6.03185 6.12937 7.05115Z" fill="#2C2D5B"/>
</g>
</g>
</svg>
