<svg width="29" height="29" viewBox="0 0 29 29" fill="none" xmlns="http://www.w3.org/2000/svg">
<g id="Iconly/Bold/Video">
<g id="Video">
<path id="Video_2" fill-rule="evenodd" clip-rule="evenodd" d="M7.78896 5.95001H14.3919C17.153 5.95001 19.0808 7.85271 19.0808 10.5795V18.4206C19.0808 21.1473 17.153 23.05 14.3919 23.05H7.78896C5.02786 23.05 3.1001 21.1473 3.1001 18.4206V10.5795C3.1001 7.85271 5.02786 5.95001 7.78896 5.95001ZM23.5722 8.66205C24.0726 8.40743 24.6598 8.43405 25.1374 8.73497C25.6151 9.03472 25.9001 9.55554 25.9001 10.125V18.8758C25.9001 19.4463 25.6151 19.966 25.1374 20.2657C24.8764 20.4289 24.5845 20.5123 24.2904 20.5123C24.0453 20.5123 23.8002 20.4544 23.571 20.3375L21.8827 19.4857C21.258 19.1686 20.8704 18.532 20.8704 17.8249V11.1747C20.8704 10.4664 21.258 9.82983 21.8827 9.51503L23.5722 8.66205Z" fill="#2C2D5B"/>
</g>
</g>
</svg>
