<svg width="20" height="19" viewBox="0 0 20 19" fill="none" xmlns="http://www.w3.org/2000/svg">
<g id="add 1" clip-path="url(#clip0_2_617)">
<g id="Group">
<path id="Vector" d="M19.4888 14.829C19.4888 12.7178 17.9121 10.9681 15.8744 10.6952V0.556641C15.8744 0.249227 15.6252 0 15.3178 0H5.70896C5.5613 0 5.41973 0.0586699 5.31534 0.163059L1.56622 3.91263C1.46187 4.01702 1.4032 4.15859 1.4032 4.30621V18.4434C1.4032 18.7508 1.65242 19 1.95984 19H15.3178C17.6177 19 19.4888 17.1289 19.4888 14.829ZM5.15232 1.90063V3.74912H3.30401L5.15232 1.90063ZM2.51648 17.8867V4.8624H5.70896C6.01638 4.8624 6.2656 4.61318 6.2656 4.30576V1.11328H14.7611V10.6951C12.7235 10.9681 11.1467 12.7178 11.1467 14.8289C11.1467 16.0358 11.6621 17.1244 12.4842 17.8867H2.51648V17.8867ZM15.3178 17.8867C13.6317 17.8867 12.26 16.515 12.26 14.829C12.26 13.1429 13.6317 11.7712 15.3178 11.7712C17.0038 11.7712 18.3755 13.1429 18.3755 14.829C18.3755 16.515 17.0038 17.8867 15.3178 17.8867Z" fill="#70727D"/>
<path id="Vector_2" d="M16.7896 14.2723H15.8744V13.3571C15.8744 13.0497 15.6252 12.8005 15.3177 12.8005C15.0103 12.8005 14.7611 13.0497 14.7611 13.3571V14.2723H13.8459C13.5385 14.2723 13.2893 14.5216 13.2893 14.829C13.2893 15.1364 13.5385 15.3856 13.8459 15.3856H14.7611V16.3008C14.7611 16.6082 15.0103 16.8574 15.3177 16.8574C15.6252 16.8574 15.8744 16.6082 15.8744 16.3008V15.3856H16.7896C17.097 15.3856 17.3462 15.1364 17.3462 14.829C17.3462 14.5216 17.097 14.2723 16.7896 14.2723Z" fill="#70727D"/>
<path id="Vector_3" d="M4.42371 7.08897H12.6615C12.9689 7.08897 13.2181 6.83974 13.2181 6.53233C13.2181 6.22491 12.9689 5.97569 12.6615 5.97569H4.42371C4.11629 5.97569 3.86707 6.22491 3.86707 6.53233C3.86707 6.83974 4.11629 7.08897 4.42371 7.08897Z" fill="#70727D"/>
<path id="Vector_4" d="M4.42371 9.31553H12.6615C12.9689 9.31553 13.2181 9.0663 13.2181 8.75889C13.2181 8.45148 12.9689 8.20225 12.6615 8.20225H4.42371C4.11629 8.20225 3.86707 8.45148 3.86707 8.75889C3.86707 9.0663 4.11629 9.31553 4.42371 9.31553Z" fill="#70727D"/>
<path id="Vector_5" d="M9.51385 10.4288H4.42371C4.11629 10.4288 3.86707 10.678 3.86707 10.9855C3.86707 11.2929 4.11629 11.5421 4.42371 11.5421H9.51385C9.82126 11.5421 10.0705 11.2929 10.0705 10.9855C10.0705 10.678 9.8213 10.4288 9.51385 10.4288Z" fill="#70727D"/>
<path id="Vector_6" d="M9.51385 12.6554H4.42371C4.11629 12.6554 3.86707 12.9046 3.86707 13.212C3.86707 13.5194 4.11629 13.7687 4.42371 13.7687H9.51385C9.82126 13.7687 10.0705 13.5194 10.0705 13.212C10.0705 12.9046 9.8213 12.6554 9.51385 12.6554Z" fill="#70727D"/>
<path id="Vector_7" d="M9.51385 14.8819H4.42371C4.11629 14.8819 3.86707 15.1312 3.86707 15.4386C3.86707 15.746 4.11629 15.9952 4.42371 15.9952H9.51385C9.82126 15.9952 10.0705 15.746 10.0705 15.4386C10.0705 15.1312 9.8213 14.8819 9.51385 14.8819Z" fill="#70727D"/>
</g>
</g>
<defs>
<clipPath id="clip0_2_617">
<rect width="19" height="19" fill="white" transform="translate(0.946045)"/>
</clipPath>
</defs>
</svg>
