<svg width="180" height="180" viewBox="0 0 180 180" fill="none" xmlns="http://www.w3.org/2000/svg">
<g id="Group 85">
<circle id="Ellipse 2" cx="90" cy="90" r="80" stroke="#F8F8FA" stroke-width="20"/>
<path id="Ellipse 3" d="M10 90C10 134.183 45.8172 170 90 170C134.183 170 170 134.183 170 90C170 45.8172 134.183 10 90 10" stroke="#5B4DBE" stroke-width="20" stroke-linecap="round"/>
<path id="Ellipse 4" d="M10 90C10 134.183 45.8172 170 90 170C134.183 170 170 134.183 170 90C170 45.8172 134.183 10 90 10" stroke="#2C2D5B" stroke-width="20" stroke-linecap="round"/>
<path id="Ellipse 5" d="M90 10C134.183 10 170 45.8172 170 90C170 134.183 134.183 170 90 170C68.9425 170 49.7852 161.864 35.5 148.565" stroke="#FFF6DF" stroke-width="20" stroke-linecap="round"/>
<path id="Ellipse 6" d="M90 10C134.183 10 170 45.8172 170 90C170 121.829 151.412 149.316 124.5 162.199" stroke="#F67366" stroke-width="20" stroke-linecap="round"/>
</g>
</svg>
