<svg width="51" height="51" viewBox="0 0 51 51" fill="none" xmlns="http://www.w3.org/2000/svg">
<g id="Group 275">
<g id="Group 133">
<rect id="Rectangle 5" x="0.25" y="0.5" width="50" height="50" rx="12" fill="#F0F4FF"/>
</g>
<path id="&#226;&#130;&#166;" d="M19.1123 35C18.0017 35 17.1014 34.0997 17.1014 32.9891V29.132C17.1014 28.5517 16.6238 28.0812 16.0435 28.0812V28.0812C15.4711 28.0812 15 27.6172 15 27.0448V27.0448C15 26.4724 15.464 26.0084 16.0364 26.0084H16.093C16.65 26.0084 17.1014 25.5569 17.1014 25V25C17.1014 24.4431 16.65 23.9916 16.093 23.9916H16.0364C15.464 23.9916 15 23.5276 15 22.9552V22.9552C15 22.3828 15.4711 21.9188 16.0435 21.9188V21.9188C16.6238 21.9188 17.1014 21.4483 17.1014 20.868V18.4027C17.1014 16.5234 18.6249 15 20.5041 15V15C21.8865 15 23.1315 15.8363 23.6542 17.116L25.115 20.6923C25.4179 21.434 26.1396 21.9188 26.9408 21.9188V21.9188C28.03 21.9188 28.913 21.0358 28.913 19.9465V17.0109C28.913 15.9003 29.8133 15 30.9239 15V15C32.0345 15 32.9348 15.9003 32.9348 17.0109V20.8862C32.9348 21.4565 33.3971 21.9188 33.9674 21.9188V21.9188C34.5377 21.9188 35 22.3849 35 22.9552V22.9552C35 23.5255 34.5377 23.9916 33.9674 23.9916H33.9432C33.3863 23.9916 32.9348 24.4431 32.9348 25V25C32.9348 25.5569 33.3863 26.0084 33.9432 26.0084H33.9674C34.5377 26.0084 35 26.4745 35 27.0448V27.0448C35 27.6151 34.5377 28.0812 33.9674 28.0812V28.0812C33.3971 28.0812 32.9348 28.5435 32.9348 29.1138V31.5623C32.9348 33.4609 31.3957 35 29.4971 35V35C28.1117 35 26.8618 34.1684 26.3265 32.8907L24.8038 29.2561C24.5056 28.5444 23.8094 28.0812 23.0378 28.0812V28.0812C21.9804 28.0812 21.1232 28.9385 21.1232 29.9959V32.9891C21.1232 34.0997 20.2229 35 19.1123 35V35ZM20.9517 21.5244C20.9666 21.7463 21.1511 21.9188 21.3736 21.9188V21.9188C21.6713 21.9188 21.8757 21.6193 21.7674 21.342L20.9626 19.2823C20.9502 19.2506 20.9196 19.2297 20.8856 19.2297V19.2297C20.8377 19.2297 20.7998 19.2702 20.803 19.3179L20.9517 21.5244ZM21.0892 25.0617C21.1082 25.59 21.5419 26.0084 22.0705 26.0084V26.0084C22.7635 26.0084 23.2385 25.31 22.9837 24.6655L22.9601 24.6056C22.8136 24.2351 22.4556 23.9916 22.0571 23.9916V23.9916C21.5073 23.9916 21.0671 24.4478 21.0869 24.9974L21.0892 25.0617ZM27.0692 25.4043C27.2203 25.7699 27.5769 26.0084 27.9725 26.0084V26.0084C28.526 26.0084 28.969 25.5492 28.9491 24.996L28.9472 24.943C28.9282 24.4121 28.4923 23.9916 27.961 23.9916V23.9916C27.2581 23.9916 26.7805 24.7056 27.049 25.3553L27.0692 25.4043ZM28.9968 30.5628C29.0118 30.6033 29.0504 30.6303 29.0936 30.6303V30.6303C29.1529 30.6303 29.2001 30.5804 29.1967 30.5212L29.08 28.4689C29.0676 28.2513 28.8876 28.0812 28.6697 28.0812V28.0812C28.3836 28.0812 28.1851 28.3663 28.2842 28.6347L28.9968 30.5628Z" fill="#002E54"/>
</g>
</svg>
