<svg width="21" height="20" viewBox="0 0 21 20" fill="none" xmlns="http://www.w3.org/2000/svg">
<g id="home 1">
<path id="Vector" d="M16.2793 18.6833H4.61267C2.88767 18.6833 1.48767 17.2833 1.48767 15.5583V8.525C1.48767 7.50833 1.98767 6.55 2.821 5.96666L8.65434 1.88333C9.72934 1.13333 11.171 1.13333 12.2377 1.88333L18.071 5.96666C18.9043 6.55 19.4043 7.50833 19.4043 8.525V15.5583C19.4043 17.2833 18.0043 18.6833 16.2793 18.6833ZM10.446 2.56666C10.071 2.56666 9.696 2.68333 9.371 2.90833L3.53767 6.99167C3.03767 7.34167 2.73767 7.91666 2.73767 8.525V15.5583C2.73767 16.5917 3.57934 17.4333 4.61267 17.4333H16.2793C17.3127 17.4333 18.1543 16.5917 18.1543 15.5583V8.525C18.1543 7.91666 17.8543 7.34167 17.3543 6.99167L11.521 2.90833C11.196 2.68333 10.821 2.575 10.446 2.575V2.56666Z" fill="black"/>
<path id="Vector_2" d="M13.7793 18.6833H7.11267C6.771 18.6833 6.48767 18.4 6.48767 18.0583V13.8917C6.48767 11.7083 8.26267 9.93333 10.446 9.93333C12.6293 9.93333 14.4043 11.7083 14.4043 13.8917V18.0583C14.4043 18.4 14.121 18.6833 13.7793 18.6833ZM7.73767 17.4333H13.1543V13.8917C13.1543 12.4 11.9377 11.1833 10.446 11.1833C8.95434 11.1833 7.73767 12.4 7.73767 13.8917V17.4333Z" fill="black"/>
</g>
</svg>
