<svg width="19" height="18" viewBox="0 0 19 18" fill="none" xmlns="http://www.w3.org/2000/svg">
<g id="invoice 1" clip-path="url(#clip0_2_652)">
<g id="Group">
<g id="Group_2">
<path id="Vector" d="M15.1372 16.6214H3.49011V17.9449H15.1372V16.6214Z" fill="#70727D"/>
</g>
</g>
<g id="Group_3">
<g id="Group_4">
<path id="Vector_2" d="M11.4093 5.96693H7.32841C6.96289 5.96693 6.66663 6.2632 6.66663 6.62872C6.66663 6.99424 6.96289 7.2905 7.32841 7.2905H11.4093C11.7748 7.2905 12.0711 6.99424 12.0711 6.62872C12.0711 6.2632 11.7748 5.96693 11.4093 5.96693Z" fill="#70727D"/>
</g>
</g>
<g id="Group_5">
<g id="Group_6">
<path id="Vector_3" d="M14.4975 9.05516H7.32841C6.96289 9.05516 6.66663 9.35142 6.66663 9.71694C6.66663 10.0825 6.96289 10.3787 7.32841 10.3787H14.4975C14.8631 10.3787 15.1593 10.0825 15.1593 9.71694C15.1593 9.35142 14.863 9.05516 14.4975 9.05516Z" fill="#70727D"/>
</g>
</g>
<g id="Group_7">
<g id="Group_8">
<path id="Vector_4" d="M18.0561 0.135703C17.8185 0.0289333 17.5408 0.0710856 17.3458 0.243351L15.4926 1.88276L13.6372 0.223699C13.386 -0.00109015 13.0061 -0.00109015 12.7549 0.223699L10.9019 1.88075L9.04878 0.223699C8.79752 -0.00109015 8.4179 -0.00109015 8.16664 0.223699L6.31127 1.88276L4.45811 0.243351C4.26335 0.0712966 3.9854 0.0291442 3.74781 0.135703C3.51047 0.242683 3.35783 0.478722 3.35783 0.739019V12.5184H1.10783C0.742307 12.5184 0.446045 12.8147 0.446045 13.1802V14.7905C0.446045 16.5298 1.86112 17.9449 3.60044 17.9449V16.6213C2.59082 16.6213 1.76957 15.7999 1.76957 14.7905V13.842H12.1372V14.7905C12.1372 16.5298 13.5523 17.9449 15.2916 17.9449C17.0309 17.9449 18.446 16.5298 18.446 14.7905V0.738984C18.446 0.478687 18.2934 0.242683 18.0561 0.135703ZM17.1225 14.7905C17.1225 15.7999 16.3011 16.6213 15.2917 16.6213C14.2822 16.6213 13.4608 15.7999 13.4608 14.7905V13.1802C13.4608 12.8147 13.1645 12.5184 12.799 12.5184H4.68135V2.20788L5.8754 3.26429C6.12687 3.48666 6.50494 3.48553 6.75487 3.26187L8.60781 1.60481L10.4608 3.26166C10.712 3.48644 11.0918 3.48644 11.3431 3.26166L13.1963 1.6046L15.0492 3.26166C15.2993 3.48532 15.6775 3.4862 15.9287 3.26408L17.1225 2.20792V14.7905Z" fill="#70727D"/>
</g>
</g>
</g>
<defs>
<clipPath id="clip0_2_652">
<rect width="18" height="18" fill="white" transform="translate(0.446045)"/>
</clipPath>
</defs>
</svg>
