<svg width="20" height="21" viewBox="0 0 20 21" fill="none" xmlns="http://www.w3.org/2000/svg">
<g id="Iconly/Bold/Location">
<g id="Location">
<path id="Location_2" fill-rule="evenodd" clip-rule="evenodd" d="M3.19995 9.15366C3.19995 5.47376 6.27506 2.49945 9.99471 2.49945C13.7248 2.49945 16.8 5.47376 16.8 9.15366C16.8 11.008 16.1256 12.7296 15.0156 14.1887C13.791 15.7983 12.2817 17.2006 10.5828 18.3014C10.194 18.5558 9.84305 18.575 9.41631 18.3014C7.70774 17.2006 6.19842 15.7983 4.98435 14.1887C3.87354 12.7296 3.19995 11.008 3.19995 9.15366ZM7.75529 9.36118C7.75529 10.5939 8.76123 11.5635 9.99466 11.5635C11.2289 11.5635 12.2445 10.5939 12.2445 9.36118C12.2445 8.13802 11.2289 7.12125 9.99466 7.12125C8.76123 7.12125 7.75529 8.13802 7.75529 9.36118Z" fill="white"/>
</g>
</g>
</svg>
