<svg width="21" height="20" viewBox="0 0 21 20" fill="none" xmlns="http://www.w3.org/2000/svg">
<g id="log-out 1">
<g id="Group">
<path id="Vector" fill-rule="evenodd" clip-rule="evenodd" d="M3.77934 13.3333V15C3.77934 16.8417 5.27184 18.3333 7.11267 18.3333H15.446C17.2877 18.3333 18.7793 16.8417 18.7793 15C18.7793 12.2258 18.7793 7.77499 18.7793 4.99999C18.7793 3.15916 17.2877 1.66666 15.446 1.66666C13.0635 1.66666 9.496 1.66666 7.11267 1.66666C5.27184 1.66666 3.77934 3.15916 3.77934 4.99999V6.66666C3.77934 7.12666 4.15267 7.49999 4.61267 7.49999C5.07267 7.49999 5.446 7.12666 5.446 6.66666C5.446 6.66666 5.446 5.88582 5.446 4.99999C5.446 4.07999 6.19267 3.33332 7.11267 3.33332H15.446C16.3668 3.33332 17.1127 4.07999 17.1127 4.99999V15C17.1127 15.9208 16.3668 16.6667 15.446 16.6667C13.0635 16.6667 9.496 16.6667 7.11267 16.6667C6.19267 16.6667 5.446 15.9208 5.446 15C5.446 14.115 5.446 13.3333 5.446 13.3333C5.446 12.8742 5.07267 12.5 4.61267 12.5C4.15267 12.5 3.77934 12.8742 3.77934 13.3333ZM10.101 9.16666L9.0235 8.08998C8.6985 7.76415 8.6985 7.23666 9.0235 6.91082C9.34934 6.58582 9.87684 6.58582 10.2018 6.91082L12.7018 9.41082C13.0277 9.73666 13.0277 10.2642 12.7018 10.59L10.2018 13.09C9.87684 13.415 9.34934 13.415 9.0235 13.09C8.6985 12.7642 8.6985 12.2367 9.0235 11.9108L10.101 10.8333H2.946C2.486 10.8333 2.11267 10.46 2.11267 9.99999C2.11267 9.54082 2.486 9.16666 2.946 9.16666H10.101Z" fill="#70727D"/>
</g>
</g>
</svg>
