<svg width="20" height="20" viewBox="0 0 20 20" fill="none" xmlns="http://www.w3.org/2000/svg">
<g id="icon / icofont / web / notification / notification">
<path id="Vector" d="M16.1779 15.5056C16.1184 15.3712 16.105 15.1753 16.1549 15.0371C16.5408 13.9427 16.9363 12.8541 17.3472 11.7673C17.785 10.6134 18.1248 9.45183 17.9539 8.19039C17.76 6.75807 17.1725 5.51775 16.1146 4.53855C15.5981 4.06239 14.9933 3.68799 14.3943 3.24255C14.4403 3.11583 14.5152 2.91807 14.5882 2.72031C14.7072 2.39391 14.6151 2.13855 14.3405 2.03679C14.0583 1.93311 13.8221 2.05023 13.6896 2.36703C13.6032 2.57055 13.5264 2.77599 13.4419 2.98719C12.6432 2.79135 11.8541 2.71263 11.0535 2.82783C8.6669 3.16959 6.94466 4.42143 6.01346 6.65439C5.44322 8.02719 4.97282 9.44223 4.46594 10.84C4.4045 11.0128 4.30658 11.1145 4.13954 11.1894C3.2909 11.5696 2.44802 11.9613 1.59938 12.3472C1.37282 12.4489 1.20386 12.5929 1.20962 12.8617C1.21538 13.1401 1.41122 13.2515 1.64162 13.3341C3.22562 13.9024 4.80578 14.4765 6.39362 15.0333C6.6317 15.1177 6.71426 15.2118 6.70082 15.4749C6.62018 17.2374 8.2733 18.5507 9.98402 18.1033C10.6771 17.9229 11.2051 17.5177 11.6026 16.9149C11.6851 16.9437 11.76 16.9705 11.8349 16.9955C13.4439 17.5715 15.0528 18.1475 16.6618 18.7273C16.9037 18.8137 17.1264 18.8502 17.3261 18.6448C17.5335 18.4297 17.4471 18.2089 17.3395 17.9824C16.944 17.1625 16.5504 16.3389 16.1779 15.5056ZM8.89538 17.1683C8.1293 16.9475 7.62242 16.2601 7.67618 15.4768C8.67842 15.8339 9.65954 16.1853 10.6445 16.5366C10.3642 17.0742 9.5597 17.3603 8.89538 17.1683Z" fill="#BBBBBB"/>
</g>
</svg>
