<svg width="25" height="24" viewBox="0 0 25 24" fill="none" xmlns="http://www.w3.org/2000/svg">
<g id="Stockholm-icons / General / Search">
<path id="Path 2" opacity="0.3" d="M14.7929 16.7071C14.4024 16.3166 14.4024 15.6834 14.7929 15.2929C15.1834 14.9024 15.8166 14.9024 16.2071 15.2929L20.2071 19.2929C20.5976 19.6834 20.5976 20.3166 20.2071 20.7071C19.8166 21.0976 19.1834 21.0976 18.7929 20.7071L14.7929 16.7071Z" fill="#4F4F4F"/>
<path id="Path" fill-rule="evenodd" clip-rule="evenodd" d="M4.5 11C4.5 14.866 7.63401 18 11.5 18C15.366 18 18.5 14.866 18.5 11C18.5 7.13401 15.366 4 11.5 4C7.63401 4 4.5 7.13401 4.5 11ZM16.5 11C16.5 13.7614 14.2614 16 11.5 16C8.73858 16 6.5 13.7614 6.5 11C6.5 8.23858 8.73858 6 11.5 6C14.2614 6 16.5 8.23858 16.5 11Z" fill="#4F4F4F"/>
</g>
</svg>
