<svg width="21" height="20" viewBox="0 0 21 20" fill="none" xmlns="http://www.w3.org/2000/svg">
<g id="settings (1) 1" clip-path="url(#clip0_2_647)">
<path id="Vector" d="M11.0736 20H9.81843C8.80323 20 7.97726 19.1741 7.97726 18.1589V17.7342C7.54565 17.5963 7.12632 17.4223 6.72347 17.2138L6.42253 17.5147C5.69366 18.2445 4.52612 18.2231 3.81843 17.5145L2.93128 16.6273C2.22233 15.9192 2.20194 14.752 2.93151 14.0232L3.23222 13.7225C3.02374 13.3197 2.84972 12.9004 2.71179 12.4688H2.28718C1.27202 12.4688 0.446045 11.6428 0.446045 10.6276V9.37238C0.446045 8.35719 1.27202 7.53125 2.28722 7.53125H2.71183C2.84976 7.09961 3.02378 6.68031 3.23226 6.27746L2.93132 5.97656C2.20218 5.2482 2.2223 4.08094 2.93155 3.37246L3.81878 2.48527C4.52812 1.77496 5.69538 1.75723 6.42284 2.48551L6.72351 2.78617C7.12636 2.57773 7.54569 2.40367 7.9773 2.26574V1.84113C7.9773 0.825937 8.80323 0 9.81847 0H11.0737C12.0889 0 12.9148 0.825937 12.9148 1.84113V2.26578C13.3464 2.40367 13.7657 2.57773 14.1686 2.78621L14.4695 2.48527C15.1984 1.75551 16.3659 1.77691 17.0736 2.48555L17.9608 3.37266C18.6697 4.08082 18.6901 5.24797 17.9605 5.97676L17.6598 6.27746C17.8683 6.68031 18.0423 7.09957 18.1803 7.53125H18.6049C19.6201 7.53125 20.446 8.35719 20.446 9.37238V10.6276C20.446 11.6428 19.6201 12.4688 18.6049 12.4688H18.1803C18.0423 12.9004 17.8683 13.3197 17.6598 13.7225L17.9608 14.0235C18.6899 14.7518 18.6698 15.9191 17.9605 16.6276L17.0733 17.5148C16.364 18.2251 15.1967 18.2428 14.4692 17.5145L14.1686 17.2139C13.7657 17.4223 13.3464 17.5964 12.9148 17.7343V18.1589C12.9148 19.1741 12.0889 20 11.0736 20ZM6.91937 15.9832C7.47901 16.3142 8.08136 16.5642 8.70964 16.7264C8.96839 16.7931 9.14917 17.0265 9.14917 17.2937V18.1589C9.14917 18.5279 9.44944 18.8281 9.81847 18.8281H11.0737C11.4427 18.8281 11.743 18.5279 11.743 18.1589V17.2937C11.743 17.0265 11.9237 16.7931 12.1825 16.7264C12.8108 16.5642 13.4131 16.3142 13.9728 15.9832C14.203 15.847 14.4962 15.8841 14.6854 16.0732L15.2982 16.6861C15.5624 16.9506 15.9867 16.9445 16.2444 16.6864L17.1322 15.7986C17.3893 15.5418 17.3979 15.1175 17.1325 14.8523L16.5194 14.2393C16.3302 14.0501 16.2932 13.7569 16.4293 13.5267C16.7603 12.9671 17.0103 12.3647 17.1725 11.7364C17.2392 11.4777 17.4726 11.2969 17.7398 11.2969H18.6049C18.9739 11.2969 19.2742 10.9967 19.2742 10.6277V9.37242C19.2742 9.0034 18.9739 8.70316 18.6049 8.70316H17.7398C17.4726 8.70316 17.2392 8.52238 17.1725 8.26367C17.0103 7.63535 16.7603 7.03301 16.4293 6.4734C16.2932 6.24316 16.3302 5.94996 16.5194 5.76082L17.1322 5.14797C17.3971 4.88336 17.3902 4.45914 17.1325 4.20168L16.2448 3.31398C15.9875 3.05633 15.5631 3.04879 15.2985 3.31375L14.6854 3.92684C14.4963 4.11602 14.203 4.15305 13.9728 4.01688C13.4132 3.6859 12.8108 3.43586 12.1825 3.27371C11.9238 3.20695 11.743 2.97359 11.743 2.70637V1.84113C11.743 1.47211 11.4427 1.17188 11.0737 1.17188H9.81851C9.44948 1.17188 9.14921 1.47211 9.14921 1.84113V2.70629C9.14921 2.97352 8.96843 3.20688 8.70968 3.27363C8.0814 3.43578 7.47905 3.68582 6.9194 4.0168C6.68909 4.15293 6.39593 4.1159 6.20679 3.92676L5.59397 3.31391C5.32976 3.04937 4.90542 3.05551 4.64772 3.31363L3.75995 4.20137C3.50284 4.45816 3.49425 4.8825 3.75972 5.14766L4.3728 5.76074C4.56194 5.94988 4.59897 6.24309 4.46284 6.47332C4.13187 7.03293 3.88187 7.63527 3.71972 8.26359C3.65292 8.52234 3.41956 8.70309 3.15237 8.70309H2.28722C1.91819 8.70312 1.61792 9.00336 1.61792 9.37238V10.6276C1.61792 10.9966 1.91819 11.2969 2.28722 11.2969H3.15233C3.41956 11.2969 3.65288 11.4777 3.71968 11.7364C3.88183 12.3647 4.13187 12.967 4.4628 13.5266C4.59894 13.7569 4.5619 14.0501 4.37276 14.2392L3.75991 14.8521C3.49499 15.1167 3.5019 15.5409 3.75968 15.7984L4.64737 16.6861C4.90468 16.9437 5.32905 16.9513 5.59366 16.6863L6.20671 16.0732C6.34608 15.9339 6.63604 15.8156 6.91937 15.9832Z" fill="#70727D"/>
<path id="Vector_2" d="M10.446 14.3516C8.04655 14.3516 6.09448 12.3995 6.09448 10C6.09448 7.60055 8.04655 5.64844 10.446 5.64844C12.8455 5.64844 14.7976 7.60055 14.7976 10C14.7976 12.3995 12.8455 14.3516 10.446 14.3516ZM10.446 6.82031C8.69272 6.82031 7.26636 8.24672 7.26636 10C7.26636 11.7533 8.69276 13.1797 10.446 13.1797C12.1993 13.1797 13.6257 11.7533 13.6257 10C13.6257 8.24672 12.1994 6.82031 10.446 6.82031Z" fill="#70727D"/>
</g>
<defs>
<clipPath id="clip0_2_647">
<rect width="20" height="20" fill="white" transform="translate(0.446045)"/>
</clipPath>
</defs>
</svg>
